<mxfile host="app.diagrams.net" modified="2021-03-27T12:48:18.630Z" agent="5.0 (X11; Linux x86_64) AppleWebKit/537.36 (KHTML, like Gecko) Chrome/89.0.4389.90 Safari/537.36" etag="Jq4HI8QoN5d8AXcSxpwa" version="14.5.3" type="github">
  <diagram id="fe9o9t63jJ4nMrAucya3" name="Page-1">
    <mxGraphModel dx="1422" dy="833" grid="1" gridSize="10" guides="1" tooltips="1" connect="1" arrows="1" fold="1" page="1" pageScale="1" pageWidth="827" pageHeight="1169" math="0" shadow="0">
      <root>
        <mxCell id="0" />
        <mxCell id="1" parent="0" />
        <mxCell id="1kwHoDAKHIwVnWZ9qKXR-3" style="edgeStyle=orthogonalEdgeStyle;rounded=0;orthogonalLoop=1;jettySize=auto;html=1;exitX=1;exitY=0.5;exitDx=0;exitDy=0;entryX=0;entryY=0.5;entryDx=0;entryDy=0;" parent="1" source="1kwHoDAKHIwVnWZ9qKXR-1" target="1kwHoDAKHIwVnWZ9qKXR-2" edge="1">
          <mxGeometry relative="1" as="geometry" />
        </mxCell>
        <mxCell id="1kwHoDAKHIwVnWZ9qKXR-5" style="edgeStyle=orthogonalEdgeStyle;rounded=0;orthogonalLoop=1;jettySize=auto;html=1;exitX=1;exitY=0.5;exitDx=0;exitDy=0;entryX=0;entryY=0.5;entryDx=0;entryDy=0;" parent="1" source="1kwHoDAKHIwVnWZ9qKXR-1" target="1kwHoDAKHIwVnWZ9qKXR-4" edge="1">
          <mxGeometry relative="1" as="geometry" />
        </mxCell>
        <mxCell id="1kwHoDAKHIwVnWZ9qKXR-7" style="edgeStyle=orthogonalEdgeStyle;rounded=0;orthogonalLoop=1;jettySize=auto;html=1;exitX=1;exitY=0.5;exitDx=0;exitDy=0;entryX=0;entryY=0.5;entryDx=0;entryDy=0;" parent="1" source="1kwHoDAKHIwVnWZ9qKXR-1" target="1kwHoDAKHIwVnWZ9qKXR-6" edge="1">
          <mxGeometry relative="1" as="geometry" />
        </mxCell>
        <mxCell id="39DIHfGKGRZBKEEOlCm_-33" style="edgeStyle=orthogonalEdgeStyle;rounded=0;orthogonalLoop=1;jettySize=auto;html=1;exitX=1;exitY=0.5;exitDx=0;exitDy=0;entryX=0;entryY=0.5;entryDx=0;entryDy=0;" parent="1" source="1kwHoDAKHIwVnWZ9qKXR-1" target="1kwHoDAKHIwVnWZ9qKXR-8" edge="1">
          <mxGeometry relative="1" as="geometry" />
        </mxCell>
        <mxCell id="39DIHfGKGRZBKEEOlCm_-34" style="edgeStyle=orthogonalEdgeStyle;rounded=0;orthogonalLoop=1;jettySize=auto;html=1;exitX=1;exitY=0.5;exitDx=0;exitDy=0;entryX=0;entryY=0.5;entryDx=0;entryDy=0;" parent="1" source="1kwHoDAKHIwVnWZ9qKXR-1" target="1kwHoDAKHIwVnWZ9qKXR-11" edge="1">
          <mxGeometry relative="1" as="geometry" />
        </mxCell>
        <mxCell id="39DIHfGKGRZBKEEOlCm_-35" style="edgeStyle=orthogonalEdgeStyle;rounded=0;orthogonalLoop=1;jettySize=auto;html=1;exitX=1;exitY=0.5;exitDx=0;exitDy=0;entryX=0;entryY=0.5;entryDx=0;entryDy=0;" parent="1" source="1kwHoDAKHIwVnWZ9qKXR-1" target="1kwHoDAKHIwVnWZ9qKXR-15" edge="1">
          <mxGeometry relative="1" as="geometry" />
        </mxCell>
        <mxCell id="39DIHfGKGRZBKEEOlCm_-36" style="edgeStyle=orthogonalEdgeStyle;rounded=0;orthogonalLoop=1;jettySize=auto;html=1;exitX=1;exitY=0.5;exitDx=0;exitDy=0;entryX=0;entryY=0.5;entryDx=0;entryDy=0;" parent="1" source="1kwHoDAKHIwVnWZ9qKXR-1" target="1kwHoDAKHIwVnWZ9qKXR-17" edge="1">
          <mxGeometry relative="1" as="geometry" />
        </mxCell>
        <mxCell id="39DIHfGKGRZBKEEOlCm_-37" style="edgeStyle=orthogonalEdgeStyle;rounded=0;orthogonalLoop=1;jettySize=auto;html=1;exitX=1;exitY=0.5;exitDx=0;exitDy=0;entryX=0;entryY=0.5;entryDx=0;entryDy=0;" parent="1" source="1kwHoDAKHIwVnWZ9qKXR-1" target="1kwHoDAKHIwVnWZ9qKXR-19" edge="1">
          <mxGeometry relative="1" as="geometry" />
        </mxCell>
        <mxCell id="1kwHoDAKHIwVnWZ9qKXR-1" value="Start" style="rounded=1;whiteSpace=wrap;html=1;" parent="1" vertex="1">
          <mxGeometry x="20" y="360" width="120" height="60" as="geometry" />
        </mxCell>
        <mxCell id="39DIHfGKGRZBKEEOlCm_-38" style="edgeStyle=orthogonalEdgeStyle;rounded=0;orthogonalLoop=1;jettySize=auto;html=1;exitX=1;exitY=0.5;exitDx=0;exitDy=0;entryX=0;entryY=0.5;entryDx=0;entryDy=0;" parent="1" source="1kwHoDAKHIwVnWZ9qKXR-2" target="1kwHoDAKHIwVnWZ9qKXR-22" edge="1">
          <mxGeometry relative="1" as="geometry" />
        </mxCell>
        <mxCell id="1kwHoDAKHIwVnWZ9qKXR-2" value="Main Problem Research" style="rounded=0;whiteSpace=wrap;html=1;fillColor=#A9C4EB;" parent="1" vertex="1">
          <mxGeometry x="240" y="80" width="120" height="60" as="geometry" />
        </mxCell>
        <mxCell id="39DIHfGKGRZBKEEOlCm_-39" style="edgeStyle=orthogonalEdgeStyle;rounded=0;orthogonalLoop=1;jettySize=auto;html=1;exitX=1;exitY=0.5;exitDx=0;exitDy=0;entryX=0;entryY=0.5;entryDx=0;entryDy=0;" parent="1" source="1kwHoDAKHIwVnWZ9qKXR-4" target="1kwHoDAKHIwVnWZ9qKXR-24" edge="1">
          <mxGeometry relative="1" as="geometry" />
        </mxCell>
        <mxCell id="1kwHoDAKHIwVnWZ9qKXR-4" value="Research Papers" style="rounded=0;whiteSpace=wrap;html=1;fillColor=#A9C4EB;" parent="1" vertex="1">
          <mxGeometry x="240" y="160" width="120" height="60" as="geometry" />
        </mxCell>
        <mxCell id="39DIHfGKGRZBKEEOlCm_-40" style="edgeStyle=orthogonalEdgeStyle;rounded=0;orthogonalLoop=1;jettySize=auto;html=1;exitX=1;exitY=0.5;exitDx=0;exitDy=0;entryX=0;entryY=0.5;entryDx=0;entryDy=0;" parent="1" source="1kwHoDAKHIwVnWZ9qKXR-6" target="1kwHoDAKHIwVnWZ9qKXR-26" edge="1">
          <mxGeometry relative="1" as="geometry" />
        </mxCell>
        <mxCell id="1kwHoDAKHIwVnWZ9qKXR-6" value="Real Life Project" style="rounded=0;whiteSpace=wrap;html=1;fillColor=#A9C4EB;" parent="1" vertex="1">
          <mxGeometry x="240" y="240" width="120" height="60" as="geometry" />
        </mxCell>
        <mxCell id="39DIHfGKGRZBKEEOlCm_-41" style="edgeStyle=orthogonalEdgeStyle;rounded=0;orthogonalLoop=1;jettySize=auto;html=1;exitX=1;exitY=0.5;exitDx=0;exitDy=0;entryX=0;entryY=0.5;entryDx=0;entryDy=0;" parent="1" source="1kwHoDAKHIwVnWZ9qKXR-8" target="1kwHoDAKHIwVnWZ9qKXR-28" edge="1">
          <mxGeometry relative="1" as="geometry" />
        </mxCell>
        <mxCell id="1kwHoDAKHIwVnWZ9qKXR-8" value="Introduction" style="rounded=0;whiteSpace=wrap;html=1;fillColor=#A9C4EB;" parent="1" vertex="1">
          <mxGeometry x="240" y="320" width="120" height="60" as="geometry" />
        </mxCell>
        <mxCell id="39DIHfGKGRZBKEEOlCm_-42" style="edgeStyle=orthogonalEdgeStyle;rounded=0;orthogonalLoop=1;jettySize=auto;html=1;exitX=1;exitY=0.5;exitDx=0;exitDy=0;entryX=0;entryY=0.5;entryDx=0;entryDy=0;" parent="1" source="1kwHoDAKHIwVnWZ9qKXR-11" target="1kwHoDAKHIwVnWZ9qKXR-26" edge="1">
          <mxGeometry relative="1" as="geometry" />
        </mxCell>
        <mxCell id="1kwHoDAKHIwVnWZ9qKXR-11" value="System Description" style="rounded=0;whiteSpace=wrap;html=1;fillColor=#A9C4EB;" parent="1" vertex="1">
          <mxGeometry x="240" y="400" width="120" height="60" as="geometry" />
        </mxCell>
        <mxCell id="39DIHfGKGRZBKEEOlCm_-43" style="edgeStyle=orthogonalEdgeStyle;rounded=0;orthogonalLoop=1;jettySize=auto;html=1;exitX=1;exitY=0.5;exitDx=0;exitDy=0;entryX=0;entryY=0.5;entryDx=0;entryDy=0;" parent="1" source="1kwHoDAKHIwVnWZ9qKXR-15" target="1kwHoDAKHIwVnWZ9qKXR-28" edge="1">
          <mxGeometry relative="1" as="geometry" />
        </mxCell>
        <mxCell id="1kwHoDAKHIwVnWZ9qKXR-15" value="System Purpose" style="rounded=0;whiteSpace=wrap;html=1;fillColor=#A9C4EB;" parent="1" vertex="1">
          <mxGeometry x="240" y="480" width="120" height="60" as="geometry" />
        </mxCell>
        <mxCell id="39DIHfGKGRZBKEEOlCm_-44" style="edgeStyle=orthogonalEdgeStyle;rounded=0;orthogonalLoop=1;jettySize=auto;html=1;exitX=1;exitY=0.5;exitDx=0;exitDy=0;entryX=0;entryY=0.5;entryDx=0;entryDy=0;" parent="1" source="1kwHoDAKHIwVnWZ9qKXR-17" target="1kwHoDAKHIwVnWZ9qKXR-26" edge="1">
          <mxGeometry relative="1" as="geometry" />
        </mxCell>
        <mxCell id="1kwHoDAKHIwVnWZ9qKXR-17" value="Problem Statement" style="rounded=0;whiteSpace=wrap;html=1;fillColor=#A9C4EB;" parent="1" vertex="1">
          <mxGeometry x="240" y="560" width="120" height="60" as="geometry" />
        </mxCell>
        <mxCell id="39DIHfGKGRZBKEEOlCm_-45" style="edgeStyle=orthogonalEdgeStyle;rounded=0;orthogonalLoop=1;jettySize=auto;html=1;exitX=1;exitY=0.5;exitDx=0;exitDy=0;entryX=0;entryY=0.5;entryDx=0;entryDy=0;" parent="1" source="1kwHoDAKHIwVnWZ9qKXR-19" target="1kwHoDAKHIwVnWZ9qKXR-24" edge="1">
          <mxGeometry relative="1" as="geometry" />
        </mxCell>
        <mxCell id="1kwHoDAKHIwVnWZ9qKXR-19" value="System Context Design" style="rounded=0;whiteSpace=wrap;html=1;fillColor=#A9C4EB;" parent="1" vertex="1">
          <mxGeometry x="240" y="640" width="120" height="60" as="geometry" />
        </mxCell>
        <mxCell id="39DIHfGKGRZBKEEOlCm_-47" style="edgeStyle=orthogonalEdgeStyle;rounded=0;orthogonalLoop=1;jettySize=auto;html=1;exitX=1;exitY=0.5;exitDx=0;exitDy=0;entryX=0;entryY=0.5;entryDx=0;entryDy=0;" parent="1" source="1kwHoDAKHIwVnWZ9qKXR-22" target="39DIHfGKGRZBKEEOlCm_-4" edge="1">
          <mxGeometry relative="1" as="geometry" />
        </mxCell>
        <mxCell id="1kwHoDAKHIwVnWZ9qKXR-22" value="Literature Review" style="rounded=0;whiteSpace=wrap;html=1;fillColor=#A9C4EB;" parent="1" vertex="1">
          <mxGeometry x="470" y="175" width="120" height="60" as="geometry" />
        </mxCell>
        <mxCell id="39DIHfGKGRZBKEEOlCm_-48" style="edgeStyle=orthogonalEdgeStyle;rounded=0;orthogonalLoop=1;jettySize=auto;html=1;exitX=1;exitY=0.5;exitDx=0;exitDy=0;entryX=0;entryY=0.5;entryDx=0;entryDy=0;" parent="1" source="1kwHoDAKHIwVnWZ9qKXR-24" target="39DIHfGKGRZBKEEOlCm_-2" edge="1">
          <mxGeometry relative="1" as="geometry" />
        </mxCell>
        <mxCell id="1kwHoDAKHIwVnWZ9qKXR-24" value="Challenges" style="rounded=0;whiteSpace=wrap;html=1;fillColor=#A9C4EB;" parent="1" vertex="1">
          <mxGeometry x="470" y="295" width="120" height="60" as="geometry" />
        </mxCell>
        <mxCell id="39DIHfGKGRZBKEEOlCm_-49" style="edgeStyle=orthogonalEdgeStyle;rounded=0;orthogonalLoop=1;jettySize=auto;html=1;exitX=1;exitY=0.5;exitDx=0;exitDy=0;entryX=0;entryY=0.5;entryDx=0;entryDy=0;" parent="1" source="1kwHoDAKHIwVnWZ9qKXR-26" target="39DIHfGKGRZBKEEOlCm_-7" edge="1">
          <mxGeometry relative="1" as="geometry" />
        </mxCell>
        <mxCell id="39DIHfGKGRZBKEEOlCm_-51" style="edgeStyle=orthogonalEdgeStyle;rounded=0;orthogonalLoop=1;jettySize=auto;html=1;exitX=1;exitY=0.5;exitDx=0;exitDy=0;entryX=0;entryY=0.5;entryDx=0;entryDy=0;" parent="1" source="1kwHoDAKHIwVnWZ9qKXR-26" target="39DIHfGKGRZBKEEOlCm_-26" edge="1">
          <mxGeometry relative="1" as="geometry" />
        </mxCell>
        <mxCell id="1kwHoDAKHIwVnWZ9qKXR-26" value="Projection" style="rounded=0;whiteSpace=wrap;html=1;fillColor=#A9C4EB;" parent="1" vertex="1">
          <mxGeometry x="470" y="415" width="120" height="60" as="geometry" />
        </mxCell>
        <mxCell id="39DIHfGKGRZBKEEOlCm_-50" style="edgeStyle=orthogonalEdgeStyle;rounded=0;orthogonalLoop=1;jettySize=auto;html=1;exitX=1;exitY=0.5;exitDx=0;exitDy=0;entryX=0;entryY=0.5;entryDx=0;entryDy=0;" parent="1" source="1kwHoDAKHIwVnWZ9qKXR-28" target="39DIHfGKGRZBKEEOlCm_-11" edge="1">
          <mxGeometry relative="1" as="geometry" />
        </mxCell>
        <mxCell id="1kwHoDAKHIwVnWZ9qKXR-28" value="Verification Phase One" style="rounded=0;whiteSpace=wrap;html=1;fillColor=#A9C4EB;" parent="1" vertex="1">
          <mxGeometry x="470" y="545" width="120" height="60" as="geometry" />
        </mxCell>
        <mxCell id="39DIHfGKGRZBKEEOlCm_-63" style="edgeStyle=orthogonalEdgeStyle;rounded=0;orthogonalLoop=1;jettySize=auto;html=1;exitX=1;exitY=0.5;exitDx=0;exitDy=0;entryX=0;entryY=0.5;entryDx=0;entryDy=0;" parent="1" source="39DIHfGKGRZBKEEOlCm_-2" target="39DIHfGKGRZBKEEOlCm_-3" edge="1">
          <mxGeometry relative="1" as="geometry" />
        </mxCell>
        <mxCell id="39DIHfGKGRZBKEEOlCm_-2" value="Functional Requirements" style="rounded=0;whiteSpace=wrap;html=1;fillColor=#C3ABD0;" parent="1" vertex="1">
          <mxGeometry x="680" y="160" width="120" height="60" as="geometry" />
        </mxCell>
        <mxCell id="39DIHfGKGRZBKEEOlCm_-32" style="edgeStyle=orthogonalEdgeStyle;rounded=0;orthogonalLoop=1;jettySize=auto;html=1;exitX=1;exitY=0.5;exitDx=0;exitDy=0;entryX=0;entryY=0.5;entryDx=0;entryDy=0;" parent="1" source="39DIHfGKGRZBKEEOlCm_-3" target="39DIHfGKGRZBKEEOlCm_-31" edge="1">
          <mxGeometry relative="1" as="geometry">
            <mxPoint x="1250" y="390" as="targetPoint" />
          </mxGeometry>
        </mxCell>
        <mxCell id="39DIHfGKGRZBKEEOlCm_-3" value="Verification Phase Two" style="rounded=0;whiteSpace=wrap;html=1;fillColor=#C3ABD0;" parent="1" vertex="1">
          <mxGeometry x="900" y="360" width="120" height="60" as="geometry" />
        </mxCell>
        <mxCell id="39DIHfGKGRZBKEEOlCm_-58" style="edgeStyle=orthogonalEdgeStyle;rounded=0;orthogonalLoop=1;jettySize=auto;html=1;exitX=1;exitY=0.5;exitDx=0;exitDy=0;entryX=0;entryY=0.5;entryDx=0;entryDy=0;" parent="1" source="39DIHfGKGRZBKEEOlCm_-4" target="39DIHfGKGRZBKEEOlCm_-3" edge="1">
          <mxGeometry relative="1" as="geometry" />
        </mxCell>
        <mxCell id="39DIHfGKGRZBKEEOlCm_-4" value="Use Case" style="rounded=0;whiteSpace=wrap;html=1;fillColor=#C3ABD0;" parent="1" vertex="1">
          <mxGeometry x="680" y="360" width="120" height="60" as="geometry" />
        </mxCell>
        <mxCell id="39DIHfGKGRZBKEEOlCm_-62" style="edgeStyle=orthogonalEdgeStyle;rounded=0;orthogonalLoop=1;jettySize=auto;html=1;exitX=1;exitY=0.5;exitDx=0;exitDy=0;entryX=0;entryY=0.5;entryDx=0;entryDy=0;" parent="1" source="39DIHfGKGRZBKEEOlCm_-7" target="39DIHfGKGRZBKEEOlCm_-3" edge="1">
          <mxGeometry relative="1" as="geometry" />
        </mxCell>
        <mxCell id="39DIHfGKGRZBKEEOlCm_-7" value="Non Functional Properties" style="rounded=0;whiteSpace=wrap;html=1;fillColor=#C3ABD0;" parent="1" vertex="1">
          <mxGeometry x="680" y="260" width="120" height="60" as="geometry" />
        </mxCell>
        <mxCell id="39DIHfGKGRZBKEEOlCm_-60" style="edgeStyle=orthogonalEdgeStyle;rounded=0;orthogonalLoop=1;jettySize=auto;html=1;exitX=1;exitY=0.5;exitDx=0;exitDy=0;entryX=0;entryY=0.5;entryDx=0;entryDy=0;" parent="1" source="39DIHfGKGRZBKEEOlCm_-11" target="39DIHfGKGRZBKEEOlCm_-3" edge="1">
          <mxGeometry relative="1" as="geometry" />
        </mxCell>
        <mxCell id="39DIHfGKGRZBKEEOlCm_-11" value="Activity Diagram" style="rounded=0;whiteSpace=wrap;html=1;fillColor=#C3ABD0;" parent="1" vertex="1">
          <mxGeometry x="680" y="460" width="120" height="60" as="geometry" />
        </mxCell>
        <mxCell id="39DIHfGKGRZBKEEOlCm_-61" style="edgeStyle=orthogonalEdgeStyle;rounded=0;orthogonalLoop=1;jettySize=auto;html=1;exitX=1;exitY=0.5;exitDx=0;exitDy=0;entryX=0;entryY=0.5;entryDx=0;entryDy=0;" parent="1" source="39DIHfGKGRZBKEEOlCm_-26" target="39DIHfGKGRZBKEEOlCm_-3" edge="1">
          <mxGeometry relative="1" as="geometry" />
        </mxCell>
        <mxCell id="39DIHfGKGRZBKEEOlCm_-26" value="Class Diagram" style="rounded=0;whiteSpace=wrap;html=1;fillColor=#C3ABD0;" parent="1" vertex="1">
          <mxGeometry x="680" y="560" width="120" height="60" as="geometry" />
        </mxCell>
        <mxCell id="39DIHfGKGRZBKEEOlCm_-31" value="End" style="rounded=1;whiteSpace=wrap;html=1;fillColor=#FFFFFF;" parent="1" vertex="1">
          <mxGeometry x="1090" y="360" width="120" height="60" as="geometry" />
        </mxCell>
      </root>
    </mxGraphModel>
  </diagram>
</mxfile>
